<svg id="delivery" width="12" height="12" viewBox="0 0 12 12" fill="none" xmlns="http://www.w3.org/2000/svg">
<path d="M4.77717 2.72865H2.32985L2.95637 1.94159H5.40369L4.77717 2.72865ZM9.18411 2.66968C9.86747 2.28439 10.1109 1.4155 9.72742 0.728625C9.34413 0.0416888 8.47931 -0.202781 7.79577 0.18266C7.11225 0.5681 6.86891 1.4371 7.25252 2.12397C7.63581 2.81067 8.50063 3.05494 9.18408 2.66968H9.18411ZM0.626519 5.18824L0 5.97521H2.44732L3.07384 5.18816H0.626519V5.18824ZM4.13111 3.56492H1.68379L1.05727 4.35198H3.50459L4.13111 3.56492ZM11.4924 5.40814L9.82882 5.33966L8.65588 3.25082L7.83498 2.7804C7.69494 2.70704 7.20947 2.42463 6.72875 2.80875L3.6568 5.37555C3.42711 5.58888 3.28298 5.91428 3.58632 6.26473C3.79742 6.50228 4.16229 6.47991 4.38527 6.30729L6.44489 4.44549L6.1783 6.13845L4.93186 8.42401L3.10611 9.40479C2.55266 9.80858 2.77564 10.2651 2.86613 10.3916C3.00165 10.5819 3.38024 10.8545 3.82194 10.5793L6.12055 9.18078L6.99174 7.56681L8.52964 8.81453L8.43999 11.365C8.45155 11.7582 8.80059 11.9977 9.10594 12C9.50386 11.9901 9.7544 11.738 9.79098 11.3047L9.86204 9.16288C9.87284 8.75935 9.95454 8.26344 9.6573 8.00393L8.10779 6.61464L8.3886 5.18708L9.31437 6.47593L11.3623 6.57351C11.7909 6.58941 11.9822 6.27236 11.9977 6.0087C12.0288 5.69349 11.7439 5.44314 11.4924 5.40815L11.4924 5.40814Z" fill="#A1A1A1"/>
</svg>
